<?xml version="1.0" encoding="UTF-8" standalone="no"?>
<svg
   xmlns:dc="http://purl.org/dc/elements/1.1/"
   xmlns:cc="http://creativecommons.org/ns#"
   xmlns:rdf="http://www.w3.org/1999/02/22-rdf-syntax-ns#"
   xmlns:svg="http://www.w3.org/2000/svg"
   xmlns="http://www.w3.org/2000/svg"
   xmlns:xlink="http://www.w3.org/1999/xlink"
   xmlns:sodipodi="http://sodipodi.sourceforge.net/DTD/sodipodi-0.dtd"
   xmlns:inkscape="http://www.inkscape.org/namespaces/inkscape"
   width="612"
   height="612"
   viewBox="0 90 612 612"
   version="1.1"
   id="svg32"
   sodipodi:docname="Piano Paradox.svg"
   inkscape:version="1.0.2-2 (e86c870879, 2021-01-15)">
  <metadata
     id="metadata36">
    <rdf:RDF>
      <cc:Work
         rdf:about="">
        <dc:format>image/svg+xml</dc:format>
        <dc:type
           rdf:resource="http://purl.org/dc/dcmitype/StillImage" />
        <dc:title></dc:title>
      </cc:Work>
    </rdf:RDF>
  </metadata>
  <sodipodi:namedview
     pagecolor="#ffffff"
     bordercolor="#666666"
     borderopacity="1"
     objecttolerance="10"
     gridtolerance="10"
     guidetolerance="10"
     inkscape:pageopacity="0"
     inkscape:pageshadow="2"
     inkscape:window-width="640"
     inkscape:window-height="480"
     id="namedview34"
     showgrid="false"
     inkscape:zoom="1.3888889"
     inkscape:cx="306"
     inkscape:cy="306"
     inkscape:current-layer="svg32" />
  <defs
     id="defs3">
    <path
       id="a"
       d="M0 90h612v612.001H0z" />
  </defs>
  <clipPath
     id="b">
    <use
       xlink:href="#a"
       overflow="visible"
       id="use5" />
  </clipPath>
  <g
     clip-path="url(#b)"
     id="g20"
     style="fill:#00aaff;fill-opacity:1">
    <path
       d="M0 90h612v612.001H0V90z"
       fill="none"
       id="path8"
       style="fill:#00aaff;fill-opacity:1" />
    <path
       fill="#FFF"
       d="M-10.552 90h612v611.945h-612V90z"
       id="path10"
       style="fill:#00aaff;fill-opacity:1" />
    <path
       d="M8.932 100.158h592.502V693.99H8.932V100.158z"
       fill="none"
       id="path12"
       style="fill:#00aaff;fill-opacity:1" />
    <path
       fill="none"
       stroke="#000"
       stroke-width="2"
       stroke-linejoin="round"
       stroke-miterlimit="10"
       d="M8.932 100.158h592.502V693.99H8.932V100.158z"
       id="path14"
       style="fill:#00aaff;fill-opacity:1" />
    <path
       fill="#FFF"
       d="M497.223 161.319c0-14.729 12.25-26.67 27.362-26.67 7.257 0 14.217 2.81 19.348 7.812 5.132 5.001 8.015 11.785 8.015 18.858 0 14.729-12.251 26.67-27.362 26.67-15.113 0-27.363-11.94-27.363-26.67z"
       id="path16"
       style="fill:#00aaff;fill-opacity:1" />
    <path
       fill="none"
       stroke="#000"
       stroke-width="2"
       stroke-linejoin="round"
       stroke-miterlimit="10"
       d="M497.223 161.319c0-14.729 12.25-26.67 27.362-26.67 7.257 0 14.217 2.81 19.348 7.812 5.132 5.001 8.015 11.785 8.015 18.858 0 14.729-12.251 26.67-27.362 26.67-15.113 0-27.363-11.94-27.363-26.67z"
       id="path18"
       style="fill:#00aaff;fill-opacity:1" />
  </g>
  <path
     fill="none"
     stroke="#231F20"
     stroke-width="2"
     stroke-miterlimit="10"
     d="M58.5 154.5h386v142h-386z"
     id="path22"
     style="fill:#b6eeff;fill-opacity:1" />
  <path
     fill="#ffffff"
     stroke="#000000"
     stroke-width="2"
     stroke-miterlimit="10"
     d="m 32,344.5 h 78 v 294 H 32 Z m 78,0 h 78 v 294 h -78 z m 78,0 h 78 v 294 h -78 z"
     id="path26" />
  <path
     fill="#FFF"
     stroke="#000"
     stroke-width="2"
     stroke-miterlimit="10"
     d="M266 344.5h78v294h-78zm78 0h78v294h-78zm78 0h78v294h-78zm78 0h78v294h-78z"
     id="path28"
     style="fill:#ffffff;fill-opacity:1" />
  <path
     fill="#231F20"
     stroke="#000"
     stroke-width="2"
     stroke-miterlimit="10"
     d="M88 344.5h45v161H88zm78 0h45v161h-45zm155.5 0h45v161h-45zm78 0h45v161h-45zm78 0h45v161h-45z"
     id="path30" />
  <g
     aria-label="1"
     id="text863"
     style="font-size:106.667px;line-height:1.25;font-family:sans-serif">
    <path
       d="m 254.0521,263.8074 v -58.48976 l -15.52088,9.68753 v -9.73962 q 5.88543,-2.96876 12.50004,-8.1771 6.66668,-5.20835 10.31253,-9.89587 h 3.12501 v 76.61482 z"
       style="font-style:normal;font-variant:normal;font-weight:normal;font-stretch:normal;font-size:106.667px;font-family:'Trebuchet MS';-inkscape-font-specification:'Trebuchet MS'"
       id="path865" />
  </g>
</svg>
